<svg xmlns="http://www.w3.org/2000/svg" version="1.1" xmlns:xlink="http://www.w3.org/1999/xlink" xmlns:svgjs="http://svgjs.dev/svgjs" viewBox="0 0 800 800"><g stroke-width="4.5" stroke="hsl(311, 54%, 39%)" fill="none"><circle r="2955" cx="50%" cy="0"></circle><circle r="2856.5" cx="50%" cy="0"></circle><circle r="2758" cx="50%" cy="0"></circle><circle r="2659.5" cx="50%" cy="0"></circle><circle r="2561" cx="50%" cy="0"></circle><circle r="2462.5" cx="50%" cy="0"></circle><circle r="2364" cx="50%" cy="0"></circle><circle r="2265.5" cx="50%" cy="0"></circle><circle r="2167" cx="50%" cy="0"></circle><circle r="2068.5" cx="50%" cy="0"></circle><circle r="1970" cx="50%" cy="0"></circle><circle r="1871.5" cx="50%" cy="0"></circle><circle r="1773" cx="50%" cy="0"></circle><circle r="1674.5" cx="50%" cy="0"></circle><circle r="1576" cx="50%" cy="0"></circle><circle r="1477.5" cx="50%" cy="0"></circle><circle r="1379" cx="50%" cy="0"></circle><circle r="1280.5" cx="50%" cy="0"></circle><circle r="1182" cx="50%" cy="0"></circle><circle r="1083.5" cx="50%" cy="0"></circle><circle r="985" cx="50%" cy="0"></circle><circle r="886.5" cx="50%" cy="0"></circle><circle r="788" cx="50%" cy="0"></circle><circle r="689.5" cx="50%" cy="0"></circle><circle r="591" cx="50%" cy="0"></circle><circle r="492.5" cx="50%" cy="0"></circle><circle r="394" cx="50%" cy="0"></circle><circle r="295.5" cx="50%" cy="0"></circle><circle r="197" cx="50%" cy="0"></circle><circle r="98.5" cx="50%" cy="0"></circle></g><g stroke-width="4.5" stroke="hsl(311, 54%, 39%)" fill="none"><circle r="2955" cx="50%" cy="100%"></circle><circle r="2856.5" cx="50%" cy="100%"></circle><circle r="2758" cx="50%" cy="100%"></circle><circle r="2659.5" cx="50%" cy="100%"></circle><circle r="2561" cx="50%" cy="100%"></circle><circle r="2462.5" cx="50%" cy="100%"></circle><circle r="2364" cx="50%" cy="100%"></circle><circle r="2265.5" cx="50%" cy="100%"></circle><circle r="2167" cx="50%" cy="100%"></circle><circle r="2068.5" cx="50%" cy="100%"></circle><circle r="1970" cx="50%" cy="100%"></circle><circle r="1871.5" cx="50%" cy="100%"></circle><circle r="1773" cx="50%" cy="100%"></circle><circle r="1674.5" cx="50%" cy="100%"></circle><circle r="1576" cx="50%" cy="100%"></circle><circle r="1477.5" cx="50%" cy="100%"></circle><circle r="1379" cx="50%" cy="100%"></circle><circle r="1280.5" cx="50%" cy="100%"></circle><circle r="1182" cx="50%" cy="100%"></circle><circle r="1083.5" cx="50%" cy="100%"></circle><circle r="985" cx="50%" cy="100%"></circle><circle r="886.5" cx="50%" cy="100%"></circle><circle r="788" cx="50%" cy="100%"></circle><circle r="689.5" cx="50%" cy="100%"></circle><circle r="591" cx="50%" cy="100%"></circle><circle r="492.5" cx="50%" cy="100%"></circle><circle r="394" cx="50%" cy="100%"></circle><circle r="295.5" cx="50%" cy="100%"></circle><circle r="197" cx="50%" cy="100%"></circle><circle r="98.5" cx="50%" cy="100%"></circle></g><g stroke-width="4.5" stroke="hsl(311, 54%, 39%)" fill="none"><circle r="2955" cx="0" cy="50%"></circle><circle r="2856.5" cx="0" cy="50%"></circle><circle r="2758" cx="0" cy="50%"></circle><circle r="2659.5" cx="0" cy="50%"></circle><circle r="2561" cx="0" cy="50%"></circle><circle r="2462.5" cx="0" cy="50%"></circle><circle r="2364" cx="0" cy="50%"></circle><circle r="2265.5" cx="0" cy="50%"></circle><circle r="2167" cx="0" cy="50%"></circle><circle r="2068.5" cx="0" cy="50%"></circle><circle r="1970" cx="0" cy="50%"></circle><circle r="1871.5" cx="0" cy="50%"></circle><circle r="1773" cx="0" cy="50%"></circle><circle r="1674.5" cx="0" cy="50%"></circle><circle r="1576" cx="0" cy="50%"></circle><circle r="1477.5" cx="0" cy="50%"></circle><circle r="1379" cx="0" cy="50%"></circle><circle r="1280.5" cx="0" cy="50%"></circle><circle r="1182" cx="0" cy="50%"></circle><circle r="1083.5" cx="0" cy="50%"></circle><circle r="985" cx="0" cy="50%"></circle><circle r="886.5" cx="0" cy="50%"></circle><circle r="788" cx="0" cy="50%"></circle><circle r="689.5" cx="0" cy="50%"></circle><circle r="591" cx="0" cy="50%"></circle><circle r="492.5" cx="0" cy="50%"></circle><circle r="394" cx="0" cy="50%"></circle><circle r="295.5" cx="0" cy="50%"></circle><circle r="197" cx="0" cy="50%"></circle><circle r="98.5" cx="0" cy="50%"></circle></g><g stroke-width="4.5" stroke="hsl(311, 54%, 39%)" fill="none"><circle r="2955" cx="100%" cy="50%"></circle><circle r="2856.5" cx="100%" cy="50%"></circle><circle r="2758" cx="100%" cy="50%"></circle><circle r="2659.5" cx="100%" cy="50%"></circle><circle r="2561" cx="100%" cy="50%"></circle><circle r="2462.5" cx="100%" cy="50%"></circle><circle r="2364" cx="100%" cy="50%"></circle><circle r="2265.5" cx="100%" cy="50%"></circle><circle r="2167" cx="100%" cy="50%"></circle><circle r="2068.5" cx="100%" cy="50%"></circle><circle r="1970" cx="100%" cy="50%"></circle><circle r="1871.5" cx="100%" cy="50%"></circle><circle r="1773" cx="100%" cy="50%"></circle><circle r="1674.5" cx="100%" cy="50%"></circle><circle r="1576" cx="100%" cy="50%"></circle><circle r="1477.5" cx="100%" cy="50%"></circle><circle r="1379" cx="100%" cy="50%"></circle><circle r="1280.5" cx="100%" cy="50%"></circle><circle r="1182" cx="100%" cy="50%"></circle><circle r="1083.5" cx="100%" cy="50%"></circle><circle r="985" cx="100%" cy="50%"></circle><circle r="886.5" cx="100%" cy="50%"></circle><circle r="788" cx="100%" cy="50%"></circle><circle r="689.5" cx="100%" cy="50%"></circle><circle r="591" cx="100%" cy="50%"></circle><circle r="492.5" cx="100%" cy="50%"></circle><circle r="394" cx="100%" cy="50%"></circle><circle r="295.5" cx="100%" cy="50%"></circle><circle r="197" cx="100%" cy="50%"></circle><circle r="98.5" cx="100%" cy="50%"></circle></g></svg>